<?xml version="1.0" encoding="iso-8859-1"?>
<!-- Generator: Adobe Illustrator 23.0.2, SVG Export Plug-In . SVG Version: 6.00 Build 0)  -->
<svg version="1.1" id="Layer_1" xmlns="http://www.w3.org/2000/svg" xmlns:xlink="http://www.w3.org/1999/xlink" x="0px" y="0px"
	 viewBox="0 0 64 64" style="enable-background:new 0 0 64 64;" xml:space="preserve">
<g>
	<linearGradient id="SVGID_1_" gradientUnits="userSpaceOnUse" x1="32" y1="54.6667" x2="32" y2="25.7598">
		<stop  offset="0.0176" style="stop-color:#97EFE7"/>
		<stop  offset="0.5207" style="stop-color:#3DB6D3"/>
		<stop  offset="1" style="stop-color:#3D6FD3"/>
	</linearGradient>
	<circle style="fill:url(#SVGID_1_);" cx="32" cy="32" r="28"/>
	<g>
		<linearGradient id="SVGID_2_" gradientUnits="userSpaceOnUse" x1="32" y1="61.828" x2="32" y2="-43.5471">
			<stop  offset="0.0176" style="stop-color:#97EFE7"/>
			<stop  offset="0.5207" style="stop-color:#3DB6D3"/>
			<stop  offset="1" style="stop-color:#3D6FD3"/>
		</linearGradient>
		<path style="fill:url(#SVGID_2_);" d="M4,32c0,4.827,1.222,9.369,3.373,13.333h49.255C58.778,41.369,60,36.827,60,32
			C60,16.536,47.464,4,32,4S4,16.536,4,32z"/>
		<g>
			<linearGradient id="SVGID_3_" gradientUnits="userSpaceOnUse" x1="22.7055" y1="29.113" x2="22.7055" y2="-23.8074">
				<stop  offset="0" style="stop-color:#FFFFFF"/>
				<stop  offset="0.84" style="stop-color:#CDDFEC"/>
			</linearGradient>
			<path style="fill:url(#SVGID_3_);" d="M31.458,16.823c-6.638-2.22-12.21-5.79-13.816-8.146c-0.121-0.178-0.251-0.334-0.384-0.48
				c-1.161,0.72-2.265,1.524-3.304,2.401C23.783,14.657,31.458,16.823,31.458,16.823z"/>
			<linearGradient id="SVGID_4_" gradientUnits="userSpaceOnUse" x1="15.4859" y1="29.9468" x2="15.4859" y2="-22.0629">
				<stop  offset="0" style="stop-color:#FFFFFF"/>
				<stop  offset="0.84" style="stop-color:#CDDFEC"/>
			</linearGradient>
			<path style="fill:url(#SVGID_4_);" d="M22.727,19.908c-3.546-0.494-6.682-1.767-7.711-2.802c-1.029-1.034-3.43-1.135-4.041-1.65
				c-0.766-0.646-0.754-0.52-1.016-0.715c-0.613,0.782-1.186,1.595-1.714,2.44C15.838,19.276,22.727,19.908,22.727,19.908z"/>
			<linearGradient id="SVGID_5_" gradientUnits="userSpaceOnUse" x1="49.1045" y1="34.8514" x2="49.1045" y2="-42.4357">
				<stop  offset="0" style="stop-color:#FFFFFF"/>
				<stop  offset="0.84" style="stop-color:#CDDFEC"/>
			</linearGradient>
			<path style="fill:url(#SVGID_5_);" d="M57.721,20.927c-0.551-0.011-1.14,0.085-1.757,0.356c-2.318,1.021-4.109-0.478-7.542,0.245
				c-3.432,0.722-9.32-0.377-9.32-0.377c8.468,2.617,15.124,3.574,20.004,3.808C58.746,23.57,58.28,22.224,57.721,20.927z"/>
			<linearGradient id="SVGID_6_" gradientUnits="userSpaceOnUse" x1="47.4881" y1="35.0902" x2="47.4881" y2="-43.5701">
				<stop  offset="0" style="stop-color:#FFFFFF"/>
				<stop  offset="0.84" style="stop-color:#CDDFEC"/>
			</linearGradient>
			<path style="fill:url(#SVGID_6_);" d="M54.989,16.023c-0.421-0.078-0.839-0.21-1.095-0.431c-0.683-0.588-1.717,0.065-2.026-0.594
				c-0.309-0.66-1.346-1.575-2.705-0.887c-1.359,0.688-2.276-0.334-4.243,0.149c-1.967,0.482-5.205-0.277-5.205-0.277
				c8.119,3.172,13.373,2.823,15.547,2.431C55.173,16.281,55.08,16.153,54.989,16.023z"/>
			
				<linearGradient id="SVGID_7_" gradientUnits="userSpaceOnUse" x1="409.381" y1="35.0916" x2="409.381" y2="-43.5742" gradientTransform="matrix(1 0 0 1 -376.2188 0)">
				<stop  offset="0" style="stop-color:#FFFFFF"/>
				<stop  offset="0.84" style="stop-color:#CDDFEC"/>
			</linearGradient>
			<path style="fill:url(#SVGID_7_);" d="M30.37,8.641c0,0,3.78,1.26,5.585,0.928c0,0-1.085-0.357-1.504-0.734
				s-1.382-0.624-1.792-0.373c-0.41,0.252-0.566-0.363-1.026-0.133C31.173,8.56,30.37,8.641,30.37,8.641z"/>
			
				<linearGradient id="SVGID_8_" gradientUnits="userSpaceOnUse" x1="407.2635" y1="35.0919" x2="407.2635" y2="-43.5739" gradientTransform="matrix(1 0 0 1 -376.2188 0)">
				<stop  offset="0" style="stop-color:#FFFFFF"/>
				<stop  offset="0.84" style="stop-color:#CDDFEC"/>
			</linearGradient>
			<path style="fill:url(#SVGID_8_);" d="M28.252,19.852c0,0,3.78,1.26,5.585,0.928c0,0-1.085-0.357-1.504-0.734
				c-0.419-0.376-1.382-0.624-1.792-0.373c-0.41,0.252-0.566-0.363-1.026-0.133C29.055,19.771,28.252,19.852,28.252,19.852z"/>
			
				<linearGradient id="SVGID_9_" gradientUnits="userSpaceOnUse" x1="423.13" y1="35.0912" x2="423.13" y2="-43.5735" gradientTransform="matrix(1 0 0 1 -376.2188 0)">
				<stop  offset="0" style="stop-color:#FFFFFF"/>
				<stop  offset="0.84" style="stop-color:#CDDFEC"/>
			</linearGradient>
			<path style="fill:url(#SVGID_9_);" d="M48.924,9.434c0,0-2.904-0.226-4.025-0.963c0,0,0.832,0.068,1.221-0.066
				c0.389-0.135,1.108-0.028,1.313,0.259c0.205,0.286,0.485-0.084,0.729,0.202C48.406,9.151,48.924,9.434,48.924,9.434z"/>
		</g>
		<linearGradient id="SVGID_10_" gradientUnits="userSpaceOnUse" x1="19.5945" y1="44.1475" x2="19.5945" y2="12.123">
			<stop  offset="0.0176" style="stop-color:#97EFE7"/>
			<stop  offset="0.5207" style="stop-color:#3DB6D3"/>
			<stop  offset="1" style="stop-color:#3D6FD3"/>
		</linearGradient>
		<path style="fill:url(#SVGID_10_);" d="M34.483,38.629H17.99v-7.013h-2.151v-4.645c0-1.669-1.353-3.022-3.022-3.022
			s-3.022,1.353-3.022,3.022v7.196H4.092c0.308,4.018,1.456,7.802,3.281,11.167h27.725L34.483,38.629z"/>
		<linearGradient id="SVGID_11_" gradientUnits="userSpaceOnUse" x1="32.5979" y1="54.5526" x2="32.5979" y2="9.4801">
			<stop  offset="0.0176" style="stop-color:#97EFE7"/>
			<stop  offset="0.5207" style="stop-color:#3DB6D3"/>
			<stop  offset="1" style="stop-color:#3D6FD3"/>
		</linearGradient>
		<path style="fill:url(#SVGID_11_);" d="M59.887,29.559c-0.06-0.686-0.14-1.366-0.248-2.036c-0.004-0.025-0.009-0.049-0.013-0.074
			c-0.118-0.715-0.261-1.421-0.432-2.117l0,0c-0.175-0.712-0.377-1.414-0.604-2.104l0,0h-1.714c-2.971,0-5.379,2.408-5.379,5.379
			v3.205h-5.845c-0.591,0-1.07,0.479-1.07,1.07v5.194h-7.375v-2.001c0-0.536-0.434-0.97-0.97-0.97h-2.104V15.866
			c0-0.514-0.417-0.93-0.93-0.93H21.082c-0.514,0-0.93,0.417-0.93,0.93v26.145h-9.68v-1.906H5.196l0,0
			c0.274,0.909,0.593,1.798,0.954,2.665c0.003,0.006,0.005,0.013,0.007,0.019c0.167,0.402,0.346,0.797,0.531,1.189
			c0.017,0.036,0.032,0.074,0.05,0.11c0.202,0.422,0.413,0.837,0.635,1.246h49.255c0.246-0.454,0.477-0.917,0.698-1.385
			c0.066-0.14,0.127-0.282,0.191-0.423c0.153-0.338,0.3-0.679,0.44-1.023c0.066-0.163,0.13-0.326,0.193-0.49
			c0.133-0.348,0.258-0.7,0.378-1.054c0.05-0.149,0.103-0.296,0.151-0.446c0.16-0.501,0.31-1.007,0.442-1.521
			c0.001-0.003,0.002-0.007,0.003-0.011c0.13-0.507,0.243-1.021,0.345-1.539c0.032-0.162,0.058-0.326,0.087-0.488
			c0.066-0.369,0.126-0.739,0.177-1.113c0.025-0.185,0.049-0.37,0.071-0.556c0.044-0.376,0.079-0.754,0.108-1.134
			c0.013-0.169,0.029-0.337,0.039-0.507C59.98,33.1,60,32.552,60,32c0-0.694-0.033-1.38-0.084-2.061
			C59.907,29.812,59.898,29.685,59.887,29.559z"/>
		<g>
			<g>
				
					<linearGradient id="SVGID_12_" gradientUnits="userSpaceOnUse" x1="399.4093" y1="48.7749" x2="399.4093" y2="-0.2781" gradientTransform="matrix(1 0 0 1 -376.2188 0)">
					<stop  offset="0" style="stop-color:#FFFFFF"/>
					<stop  offset="0.84" style="stop-color:#CDDFEC"/>
				</linearGradient>
				<path style="fill:url(#SVGID_12_);" d="M23.691,18.649H22.69c-0.05,0-0.091-0.041-0.091-0.091v-1.001
					c0-0.05,0.041-0.091,0.091-0.091h1.001c0.05,0,0.091,0.041,0.091,0.091v1.001C23.782,18.608,23.741,18.649,23.691,18.649z"/>
				
					<linearGradient id="SVGID_13_" gradientUnits="userSpaceOnUse" x1="401.461" y1="48.7749" x2="401.461" y2="-0.2781" gradientTransform="matrix(1 0 0 1 -376.2188 0)">
					<stop  offset="0" style="stop-color:#FFFFFF"/>
					<stop  offset="0.84" style="stop-color:#CDDFEC"/>
				</linearGradient>
				<path style="fill:url(#SVGID_13_);" d="M25.743,18.649h-1.002c-0.05,0-0.091-0.041-0.091-0.091v-1.001
					c0-0.05,0.041-0.091,0.091-0.091h1.002c0.05,0,0.091,0.041,0.091,0.091v1.001C25.834,18.608,25.793,18.649,25.743,18.649z"/>
				
					<linearGradient id="SVGID_14_" gradientUnits="userSpaceOnUse" x1="403.5127" y1="48.7749" x2="403.5127" y2="-0.2781" gradientTransform="matrix(1 0 0 1 -376.2188 0)">
					<stop  offset="0" style="stop-color:#FFFFFF"/>
					<stop  offset="0.84" style="stop-color:#CDDFEC"/>
				</linearGradient>
				<path style="fill:url(#SVGID_14_);" d="M27.795,18.649h-1.001c-0.05,0-0.091-0.041-0.091-0.091v-1.001
					c0-0.05,0.041-0.091,0.091-0.091h1.001c0.05,0,0.091,0.041,0.091,0.091v1.001C27.886,18.608,27.845,18.649,27.795,18.649z"/>
				
					<linearGradient id="SVGID_15_" gradientUnits="userSpaceOnUse" x1="405.5643" y1="48.7749" x2="405.5643" y2="-0.2781" gradientTransform="matrix(1 0 0 1 -376.2188 0)">
					<stop  offset="0" style="stop-color:#FFFFFF"/>
					<stop  offset="0.84" style="stop-color:#CDDFEC"/>
				</linearGradient>
				<path style="fill:url(#SVGID_15_);" d="M29.846,18.649h-1.002c-0.05,0-0.091-0.041-0.091-0.091v-1.001
					c0-0.05,0.041-0.091,0.091-0.091h1.002c0.05,0,0.091,0.041,0.091,0.091v1.001C29.937,18.608,29.896,18.649,29.846,18.649z"/>
				
					<linearGradient id="SVGID_16_" gradientUnits="userSpaceOnUse" x1="407.616" y1="48.7749" x2="407.616" y2="-0.2781" gradientTransform="matrix(1 0 0 1 -376.2188 0)">
					<stop  offset="0" style="stop-color:#FFFFFF"/>
					<stop  offset="0.84" style="stop-color:#CDDFEC"/>
				</linearGradient>
				<path style="fill:url(#SVGID_16_);" d="M31.898,18.649h-1.002c-0.05,0-0.091-0.041-0.091-0.091v-1.001
					c0-0.05,0.041-0.091,0.091-0.091h1.002c0.05,0,0.091,0.041,0.091,0.091v1.001C31.989,18.608,31.948,18.649,31.898,18.649z"/>
			</g>
			<g>
				
					<linearGradient id="SVGID_17_" gradientUnits="userSpaceOnUse" x1="399.4093" y1="48.7773" x2="399.4093" y2="-0.2799" gradientTransform="matrix(1 0 0 1 -376.2188 0)">
					<stop  offset="0" style="stop-color:#FFFFFF"/>
					<stop  offset="0.84" style="stop-color:#CDDFEC"/>
				</linearGradient>
				<path style="fill:url(#SVGID_17_);" d="M23.691,20.81H22.69c-0.05,0-0.091-0.041-0.091-0.091v-1.001
					c0-0.05,0.041-0.091,0.091-0.091h1.001c0.05,0,0.091,0.041,0.091,0.091v1.001C23.782,20.769,23.741,20.81,23.691,20.81z"/>
				
					<linearGradient id="SVGID_18_" gradientUnits="userSpaceOnUse" x1="401.461" y1="48.7773" x2="401.461" y2="-0.2799" gradientTransform="matrix(1 0 0 1 -376.2188 0)">
					<stop  offset="0" style="stop-color:#FFFFFF"/>
					<stop  offset="0.84" style="stop-color:#CDDFEC"/>
				</linearGradient>
				<path style="fill:url(#SVGID_18_);" d="M25.743,20.81h-1.002c-0.05,0-0.091-0.041-0.091-0.091v-1.001
					c0-0.05,0.041-0.091,0.091-0.091h1.002c0.05,0,0.091,0.041,0.091,0.091v1.001C25.834,20.769,25.793,20.81,25.743,20.81z"/>
				
					<linearGradient id="SVGID_19_" gradientUnits="userSpaceOnUse" x1="403.5127" y1="48.7773" x2="403.5127" y2="-0.2799" gradientTransform="matrix(1 0 0 1 -376.2188 0)">
					<stop  offset="0" style="stop-color:#FFFFFF"/>
					<stop  offset="0.84" style="stop-color:#CDDFEC"/>
				</linearGradient>
				<path style="fill:url(#SVGID_19_);" d="M27.795,20.81h-1.001c-0.05,0-0.091-0.041-0.091-0.091v-1.001
					c0-0.05,0.041-0.091,0.091-0.091h1.001c0.05,0,0.091,0.041,0.091,0.091v1.001C27.886,20.769,27.845,20.81,27.795,20.81z"/>
				
					<linearGradient id="SVGID_20_" gradientUnits="userSpaceOnUse" x1="405.5643" y1="48.7773" x2="405.5643" y2="-0.2799" gradientTransform="matrix(1 0 0 1 -376.2188 0)">
					<stop  offset="0" style="stop-color:#FFFFFF"/>
					<stop  offset="0.84" style="stop-color:#CDDFEC"/>
				</linearGradient>
				<path style="fill:url(#SVGID_20_);" d="M29.846,20.81h-1.002c-0.05,0-0.091-0.041-0.091-0.091v-1.001
					c0-0.05,0.041-0.091,0.091-0.091h1.002c0.05,0,0.091,0.041,0.091,0.091v1.001C29.937,20.769,29.896,20.81,29.846,20.81z"/>
				
					<linearGradient id="SVGID_21_" gradientUnits="userSpaceOnUse" x1="407.616" y1="48.7773" x2="407.616" y2="-0.2799" gradientTransform="matrix(1 0 0 1 -376.2188 0)">
					<stop  offset="0" style="stop-color:#FFFFFF"/>
					<stop  offset="0.84" style="stop-color:#CDDFEC"/>
				</linearGradient>
				<path style="fill:url(#SVGID_21_);" d="M31.898,20.81h-1.002c-0.05,0-0.091-0.041-0.091-0.091v-1.001
					c0-0.05,0.041-0.091,0.091-0.091h1.002c0.05,0,0.091,0.041,0.091,0.091v1.001C31.989,20.769,31.948,20.81,31.898,20.81z"/>
			</g>
			<g>
				
					<linearGradient id="SVGID_22_" gradientUnits="userSpaceOnUse" x1="399.4093" y1="48.775" x2="399.4093" y2="-0.278" gradientTransform="matrix(1 0 0 1 -376.2188 0)">
					<stop  offset="0" style="stop-color:#FFFFFF"/>
					<stop  offset="0.84" style="stop-color:#CDDFEC"/>
				</linearGradient>
				<path style="fill:url(#SVGID_22_);" d="M23.691,22.971H22.69c-0.05,0-0.091-0.041-0.091-0.091v-1.001
					c0-0.05,0.041-0.091,0.091-0.091h1.001c0.05,0,0.091,0.041,0.091,0.091v1.001C23.782,22.93,23.741,22.971,23.691,22.971z"/>
				
					<linearGradient id="SVGID_23_" gradientUnits="userSpaceOnUse" x1="401.461" y1="48.775" x2="401.461" y2="-0.278" gradientTransform="matrix(1 0 0 1 -376.2188 0)">
					<stop  offset="0" style="stop-color:#FFFFFF"/>
					<stop  offset="0.84" style="stop-color:#CDDFEC"/>
				</linearGradient>
				<path style="fill:url(#SVGID_23_);" d="M25.743,22.971h-1.002c-0.05,0-0.091-0.041-0.091-0.091v-1.001
					c0-0.05,0.041-0.091,0.091-0.091h1.002c0.05,0,0.091,0.041,0.091,0.091v1.001C25.834,22.93,25.793,22.971,25.743,22.971z"/>
				
					<linearGradient id="SVGID_24_" gradientUnits="userSpaceOnUse" x1="403.5127" y1="48.775" x2="403.5127" y2="-0.278" gradientTransform="matrix(1 0 0 1 -376.2188 0)">
					<stop  offset="0" style="stop-color:#FFFFFF"/>
					<stop  offset="0.84" style="stop-color:#CDDFEC"/>
				</linearGradient>
				<path style="fill:url(#SVGID_24_);" d="M27.795,22.971h-1.001c-0.05,0-0.091-0.041-0.091-0.091v-1.001
					c0-0.05,0.041-0.091,0.091-0.091h1.001c0.05,0,0.091,0.041,0.091,0.091v1.001C27.886,22.93,27.845,22.971,27.795,22.971z"/>
				
					<linearGradient id="SVGID_25_" gradientUnits="userSpaceOnUse" x1="405.5643" y1="48.775" x2="405.5643" y2="-0.278" gradientTransform="matrix(1 0 0 1 -376.2188 0)">
					<stop  offset="0" style="stop-color:#FFFFFF"/>
					<stop  offset="0.84" style="stop-color:#CDDFEC"/>
				</linearGradient>
				<path style="fill:url(#SVGID_25_);" d="M29.846,22.971h-1.002c-0.05,0-0.091-0.041-0.091-0.091v-1.001
					c0-0.05,0.041-0.091,0.091-0.091h1.002c0.05,0,0.091,0.041,0.091,0.091v1.001C29.937,22.93,29.896,22.971,29.846,22.971z"/>
				
					<linearGradient id="SVGID_26_" gradientUnits="userSpaceOnUse" x1="407.616" y1="48.775" x2="407.616" y2="-0.278" gradientTransform="matrix(1 0 0 1 -376.2188 0)">
					<stop  offset="0" style="stop-color:#FFFFFF"/>
					<stop  offset="0.84" style="stop-color:#CDDFEC"/>
				</linearGradient>
				<path style="fill:url(#SVGID_26_);" d="M31.898,22.971h-1.002c-0.05,0-0.091-0.041-0.091-0.091v-1.001
					c0-0.05,0.041-0.091,0.091-0.091h1.002c0.05,0,0.091,0.041,0.091,0.091v1.001C31.989,22.93,31.948,22.971,31.898,22.971z"/>
			</g>
			<g>
				
					<linearGradient id="SVGID_27_" gradientUnits="userSpaceOnUse" x1="399.4093" y1="48.7771" x2="399.4093" y2="-0.28" gradientTransform="matrix(1 0 0 1 -376.2188 0)">
					<stop  offset="0" style="stop-color:#FFFFFF"/>
					<stop  offset="0.84" style="stop-color:#CDDFEC"/>
				</linearGradient>
				<path style="fill:url(#SVGID_27_);" d="M23.691,25.132H22.69c-0.05,0-0.091-0.041-0.091-0.091V24.04
					c0-0.05,0.041-0.091,0.091-0.091h1.001c0.05,0,0.091,0.041,0.091,0.091v1.001C23.782,25.091,23.741,25.132,23.691,25.132z"/>
				
					<linearGradient id="SVGID_28_" gradientUnits="userSpaceOnUse" x1="401.461" y1="48.7771" x2="401.461" y2="-0.28" gradientTransform="matrix(1 0 0 1 -376.2188 0)">
					<stop  offset="0" style="stop-color:#FFFFFF"/>
					<stop  offset="0.84" style="stop-color:#CDDFEC"/>
				</linearGradient>
				<path style="fill:url(#SVGID_28_);" d="M25.743,25.132h-1.002c-0.05,0-0.091-0.041-0.091-0.091V24.04
					c0-0.05,0.041-0.091,0.091-0.091h1.002c0.05,0,0.091,0.041,0.091,0.091v1.001C25.834,25.091,25.793,25.132,25.743,25.132z"/>
				
					<linearGradient id="SVGID_29_" gradientUnits="userSpaceOnUse" x1="403.5127" y1="48.7771" x2="403.5127" y2="-0.28" gradientTransform="matrix(1 0 0 1 -376.2188 0)">
					<stop  offset="0" style="stop-color:#FFFFFF"/>
					<stop  offset="0.84" style="stop-color:#CDDFEC"/>
				</linearGradient>
				<path style="fill:url(#SVGID_29_);" d="M27.795,25.132h-1.001c-0.05,0-0.091-0.041-0.091-0.091V24.04
					c0-0.05,0.041-0.091,0.091-0.091h1.001c0.05,0,0.091,0.041,0.091,0.091v1.001C27.886,25.091,27.845,25.132,27.795,25.132z"/>
				
					<linearGradient id="SVGID_30_" gradientUnits="userSpaceOnUse" x1="405.5643" y1="48.7771" x2="405.5643" y2="-0.28" gradientTransform="matrix(1 0 0 1 -376.2188 0)">
					<stop  offset="0" style="stop-color:#FFFFFF"/>
					<stop  offset="0.84" style="stop-color:#CDDFEC"/>
				</linearGradient>
				<path style="fill:url(#SVGID_30_);" d="M29.846,25.132h-1.002c-0.05,0-0.091-0.041-0.091-0.091V24.04
					c0-0.05,0.041-0.091,0.091-0.091h1.002c0.05,0,0.091,0.041,0.091,0.091v1.001C29.937,25.091,29.896,25.132,29.846,25.132z"/>
				
					<linearGradient id="SVGID_31_" gradientUnits="userSpaceOnUse" x1="407.616" y1="48.7771" x2="407.616" y2="-0.28" gradientTransform="matrix(1 0 0 1 -376.2188 0)">
					<stop  offset="0" style="stop-color:#FFFFFF"/>
					<stop  offset="0.84" style="stop-color:#CDDFEC"/>
				</linearGradient>
				<path style="fill:url(#SVGID_31_);" d="M31.898,25.132h-1.002c-0.05,0-0.091-0.041-0.091-0.091V24.04
					c0-0.05,0.041-0.091,0.091-0.091h1.002c0.05,0,0.091,0.041,0.091,0.091v1.001C31.989,25.091,31.948,25.132,31.898,25.132z"/>
			</g>
			<g>
				
					<linearGradient id="SVGID_32_" gradientUnits="userSpaceOnUse" x1="399.4093" y1="48.7771" x2="399.4093" y2="-0.28" gradientTransform="matrix(1 0 0 1 -376.2188 0)">
					<stop  offset="0" style="stop-color:#FFFFFF"/>
					<stop  offset="0.84" style="stop-color:#CDDFEC"/>
				</linearGradient>
				<path style="fill:url(#SVGID_32_);" d="M23.691,27.294H22.69c-0.05,0-0.091-0.041-0.091-0.091v-1.001
					c0-0.05,0.041-0.091,0.091-0.091h1.001c0.05,0,0.091,0.041,0.091,0.091v1.001C23.782,27.252,23.741,27.294,23.691,27.294z"/>
				
					<linearGradient id="SVGID_33_" gradientUnits="userSpaceOnUse" x1="401.461" y1="48.7771" x2="401.461" y2="-0.28" gradientTransform="matrix(1 0 0 1 -376.2188 0)">
					<stop  offset="0" style="stop-color:#FFFFFF"/>
					<stop  offset="0.84" style="stop-color:#CDDFEC"/>
				</linearGradient>
				<path style="fill:url(#SVGID_33_);" d="M25.743,27.294h-1.002c-0.05,0-0.091-0.041-0.091-0.091v-1.001
					c0-0.05,0.041-0.091,0.091-0.091h1.002c0.05,0,0.091,0.041,0.091,0.091v1.001C25.834,27.252,25.793,27.294,25.743,27.294z"/>
				
					<linearGradient id="SVGID_34_" gradientUnits="userSpaceOnUse" x1="403.5127" y1="48.7771" x2="403.5127" y2="-0.28" gradientTransform="matrix(1 0 0 1 -376.2188 0)">
					<stop  offset="0" style="stop-color:#FFFFFF"/>
					<stop  offset="0.84" style="stop-color:#CDDFEC"/>
				</linearGradient>
				<path style="fill:url(#SVGID_34_);" d="M27.795,27.294h-1.001c-0.05,0-0.091-0.041-0.091-0.091v-1.001
					c0-0.05,0.041-0.091,0.091-0.091h1.001c0.05,0,0.091,0.041,0.091,0.091v1.001C27.886,27.252,27.845,27.294,27.795,27.294z"/>
				
					<linearGradient id="SVGID_35_" gradientUnits="userSpaceOnUse" x1="405.5643" y1="48.7771" x2="405.5643" y2="-0.28" gradientTransform="matrix(1 0 0 1 -376.2188 0)">
					<stop  offset="0" style="stop-color:#FFFFFF"/>
					<stop  offset="0.84" style="stop-color:#CDDFEC"/>
				</linearGradient>
				<path style="fill:url(#SVGID_35_);" d="M29.846,27.294h-1.002c-0.05,0-0.091-0.041-0.091-0.091v-1.001
					c0-0.05,0.041-0.091,0.091-0.091h1.002c0.05,0,0.091,0.041,0.091,0.091v1.001C29.937,27.252,29.896,27.294,29.846,27.294z"/>
				
					<linearGradient id="SVGID_36_" gradientUnits="userSpaceOnUse" x1="407.616" y1="48.7771" x2="407.616" y2="-0.28" gradientTransform="matrix(1 0 0 1 -376.2188 0)">
					<stop  offset="0" style="stop-color:#FFFFFF"/>
					<stop  offset="0.84" style="stop-color:#CDDFEC"/>
				</linearGradient>
				<path style="fill:url(#SVGID_36_);" d="M31.898,27.294h-1.002c-0.05,0-0.091-0.041-0.091-0.091v-1.001
					c0-0.05,0.041-0.091,0.091-0.091h1.002c0.05,0,0.091,0.041,0.091,0.091v1.001C31.989,27.252,31.948,27.294,31.898,27.294z"/>
			</g>
			<g>
				
					<linearGradient id="SVGID_37_" gradientUnits="userSpaceOnUse" x1="399.4093" y1="48.777" x2="399.4093" y2="-0.2801" gradientTransform="matrix(1 0 0 1 -376.2188 0)">
					<stop  offset="0" style="stop-color:#FFFFFF"/>
					<stop  offset="0.84" style="stop-color:#CDDFEC"/>
				</linearGradient>
				<path style="fill:url(#SVGID_37_);" d="M23.691,29.455H22.69c-0.05,0-0.091-0.041-0.091-0.091v-1.001
					c0-0.05,0.041-0.091,0.091-0.091h1.001c0.05,0,0.091,0.041,0.091,0.091v1.001C23.782,29.414,23.741,29.455,23.691,29.455z"/>
				
					<linearGradient id="SVGID_38_" gradientUnits="userSpaceOnUse" x1="401.461" y1="48.777" x2="401.461" y2="-0.2801" gradientTransform="matrix(1 0 0 1 -376.2188 0)">
					<stop  offset="0" style="stop-color:#FFFFFF"/>
					<stop  offset="0.84" style="stop-color:#CDDFEC"/>
				</linearGradient>
				<path style="fill:url(#SVGID_38_);" d="M25.743,29.455h-1.002c-0.05,0-0.091-0.041-0.091-0.091v-1.001
					c0-0.05,0.041-0.091,0.091-0.091h1.002c0.05,0,0.091,0.041,0.091,0.091v1.001C25.834,29.414,25.793,29.455,25.743,29.455z"/>
				
					<linearGradient id="SVGID_39_" gradientUnits="userSpaceOnUse" x1="403.5127" y1="48.777" x2="403.5127" y2="-0.2801" gradientTransform="matrix(1 0 0 1 -376.2188 0)">
					<stop  offset="0" style="stop-color:#FFFFFF"/>
					<stop  offset="0.84" style="stop-color:#CDDFEC"/>
				</linearGradient>
				<path style="fill:url(#SVGID_39_);" d="M27.795,29.455h-1.001c-0.05,0-0.091-0.041-0.091-0.091v-1.001
					c0-0.05,0.041-0.091,0.091-0.091h1.001c0.05,0,0.091,0.041,0.091,0.091v1.001C27.886,29.414,27.845,29.455,27.795,29.455z"/>
				
					<linearGradient id="SVGID_40_" gradientUnits="userSpaceOnUse" x1="405.5643" y1="48.777" x2="405.5643" y2="-0.2801" gradientTransform="matrix(1 0 0 1 -376.2188 0)">
					<stop  offset="0" style="stop-color:#FFFFFF"/>
					<stop  offset="0.84" style="stop-color:#CDDFEC"/>
				</linearGradient>
				<path style="fill:url(#SVGID_40_);" d="M29.846,29.455h-1.002c-0.05,0-0.091-0.041-0.091-0.091v-1.001
					c0-0.05,0.041-0.091,0.091-0.091h1.002c0.05,0,0.091,0.041,0.091,0.091v1.001C29.937,29.414,29.896,29.455,29.846,29.455z"/>
				
					<linearGradient id="SVGID_41_" gradientUnits="userSpaceOnUse" x1="407.616" y1="48.777" x2="407.616" y2="-0.2801" gradientTransform="matrix(1 0 0 1 -376.2188 0)">
					<stop  offset="0" style="stop-color:#FFFFFF"/>
					<stop  offset="0.84" style="stop-color:#CDDFEC"/>
				</linearGradient>
				<path style="fill:url(#SVGID_41_);" d="M31.898,29.455h-1.002c-0.05,0-0.091-0.041-0.091-0.091v-1.001
					c0-0.05,0.041-0.091,0.091-0.091h1.002c0.05,0,0.091,0.041,0.091,0.091v1.001C31.989,29.414,31.948,29.455,31.898,29.455z"/>
			</g>
			<g>
				
					<linearGradient id="SVGID_42_" gradientUnits="userSpaceOnUse" x1="399.4093" y1="48.777" x2="399.4093" y2="-0.2801" gradientTransform="matrix(1 0 0 1 -376.2188 0)">
					<stop  offset="0" style="stop-color:#FFFFFF"/>
					<stop  offset="0.84" style="stop-color:#CDDFEC"/>
				</linearGradient>
				<path style="fill:url(#SVGID_42_);" d="M23.691,31.616H22.69c-0.05,0-0.091-0.041-0.091-0.091v-1.001
					c0-0.05,0.041-0.091,0.091-0.091h1.001c0.05,0,0.091,0.041,0.091,0.091v1.001C23.782,31.575,23.741,31.616,23.691,31.616z"/>
				
					<linearGradient id="SVGID_43_" gradientUnits="userSpaceOnUse" x1="401.461" y1="48.777" x2="401.461" y2="-0.2801" gradientTransform="matrix(1 0 0 1 -376.2188 0)">
					<stop  offset="0" style="stop-color:#FFFFFF"/>
					<stop  offset="0.84" style="stop-color:#CDDFEC"/>
				</linearGradient>
				<path style="fill:url(#SVGID_43_);" d="M25.743,31.616h-1.002c-0.05,0-0.091-0.041-0.091-0.091v-1.001
					c0-0.05,0.041-0.091,0.091-0.091h1.002c0.05,0,0.091,0.041,0.091,0.091v1.001C25.834,31.575,25.793,31.616,25.743,31.616z"/>
				
					<linearGradient id="SVGID_44_" gradientUnits="userSpaceOnUse" x1="403.5127" y1="48.777" x2="403.5127" y2="-0.2801" gradientTransform="matrix(1 0 0 1 -376.2188 0)">
					<stop  offset="0" style="stop-color:#FFFFFF"/>
					<stop  offset="0.84" style="stop-color:#CDDFEC"/>
				</linearGradient>
				<path style="fill:url(#SVGID_44_);" d="M27.795,31.616h-1.001c-0.05,0-0.091-0.041-0.091-0.091v-1.001
					c0-0.05,0.041-0.091,0.091-0.091h1.001c0.05,0,0.091,0.041,0.091,0.091v1.001C27.886,31.575,27.845,31.616,27.795,31.616z"/>
				
					<linearGradient id="SVGID_45_" gradientUnits="userSpaceOnUse" x1="405.5643" y1="48.777" x2="405.5643" y2="-0.2801" gradientTransform="matrix(1 0 0 1 -376.2188 0)">
					<stop  offset="0" style="stop-color:#FFFFFF"/>
					<stop  offset="0.84" style="stop-color:#CDDFEC"/>
				</linearGradient>
				<path style="fill:url(#SVGID_45_);" d="M29.846,31.616h-1.002c-0.05,0-0.091-0.041-0.091-0.091v-1.001
					c0-0.05,0.041-0.091,0.091-0.091h1.002c0.05,0,0.091,0.041,0.091,0.091v1.001C29.937,31.575,29.896,31.616,29.846,31.616z"/>
				
					<linearGradient id="SVGID_46_" gradientUnits="userSpaceOnUse" x1="407.616" y1="48.777" x2="407.616" y2="-0.2801" gradientTransform="matrix(1 0 0 1 -376.2188 0)">
					<stop  offset="0" style="stop-color:#FFFFFF"/>
					<stop  offset="0.84" style="stop-color:#CDDFEC"/>
				</linearGradient>
				<path style="fill:url(#SVGID_46_);" d="M31.898,31.616h-1.002c-0.05,0-0.091-0.041-0.091-0.091v-1.001
					c0-0.05,0.041-0.091,0.091-0.091h1.002c0.05,0,0.091,0.041,0.091,0.091v1.001C31.989,31.575,31.948,31.616,31.898,31.616z"/>
			</g>
			<g>
				
					<linearGradient id="SVGID_47_" gradientUnits="userSpaceOnUse" x1="399.4093" y1="48.7756" x2="399.4093" y2="-0.2774" gradientTransform="matrix(1 0 0 1 -376.2188 0)">
					<stop  offset="0" style="stop-color:#FFFFFF"/>
					<stop  offset="0.84" style="stop-color:#CDDFEC"/>
				</linearGradient>
				<path style="fill:url(#SVGID_47_);" d="M23.691,33.777H22.69c-0.05,0-0.091-0.041-0.091-0.091v-1.001
					c0-0.05,0.041-0.091,0.091-0.091h1.001c0.05,0,0.091,0.041,0.091,0.091v1.001C23.782,33.736,23.741,33.777,23.691,33.777z"/>
				
					<linearGradient id="SVGID_48_" gradientUnits="userSpaceOnUse" x1="401.461" y1="48.7756" x2="401.461" y2="-0.2774" gradientTransform="matrix(1 0 0 1 -376.2188 0)">
					<stop  offset="0" style="stop-color:#FFFFFF"/>
					<stop  offset="0.84" style="stop-color:#CDDFEC"/>
				</linearGradient>
				<path style="fill:url(#SVGID_48_);" d="M25.743,33.777h-1.002c-0.05,0-0.091-0.041-0.091-0.091v-1.001
					c0-0.05,0.041-0.091,0.091-0.091h1.002c0.05,0,0.091,0.041,0.091,0.091v1.001C25.834,33.736,25.793,33.777,25.743,33.777z"/>
				
					<linearGradient id="SVGID_49_" gradientUnits="userSpaceOnUse" x1="403.5127" y1="48.7756" x2="403.5127" y2="-0.2774" gradientTransform="matrix(1 0 0 1 -376.2188 0)">
					<stop  offset="0" style="stop-color:#FFFFFF"/>
					<stop  offset="0.84" style="stop-color:#CDDFEC"/>
				</linearGradient>
				<path style="fill:url(#SVGID_49_);" d="M27.795,33.777h-1.001c-0.05,0-0.091-0.041-0.091-0.091v-1.001
					c0-0.05,0.041-0.091,0.091-0.091h1.001c0.05,0,0.091,0.041,0.091,0.091v1.001C27.886,33.736,27.845,33.777,27.795,33.777z"/>
				
					<linearGradient id="SVGID_50_" gradientUnits="userSpaceOnUse" x1="405.5643" y1="48.7756" x2="405.5643" y2="-0.2774" gradientTransform="matrix(1 0 0 1 -376.2188 0)">
					<stop  offset="0" style="stop-color:#FFFFFF"/>
					<stop  offset="0.84" style="stop-color:#CDDFEC"/>
				</linearGradient>
				<path style="fill:url(#SVGID_50_);" d="M29.846,33.777h-1.002c-0.05,0-0.091-0.041-0.091-0.091v-1.001
					c0-0.05,0.041-0.091,0.091-0.091h1.002c0.05,0,0.091,0.041,0.091,0.091v1.001C29.937,33.736,29.896,33.777,29.846,33.777z"/>
				
					<linearGradient id="SVGID_51_" gradientUnits="userSpaceOnUse" x1="407.616" y1="48.7756" x2="407.616" y2="-0.2774" gradientTransform="matrix(1 0 0 1 -376.2188 0)">
					<stop  offset="0" style="stop-color:#FFFFFF"/>
					<stop  offset="0.84" style="stop-color:#CDDFEC"/>
				</linearGradient>
				<path style="fill:url(#SVGID_51_);" d="M31.898,33.777h-1.002c-0.05,0-0.091-0.041-0.091-0.091v-1.001
					c0-0.05,0.041-0.091,0.091-0.091h1.002c0.05,0,0.091,0.041,0.091,0.091v1.001C31.989,33.736,31.948,33.777,31.898,33.777z"/>
			</g>
			<g>
				
					<linearGradient id="SVGID_52_" gradientUnits="userSpaceOnUse" x1="399.4093" y1="48.7769" x2="399.4093" y2="-0.2802" gradientTransform="matrix(1 0 0 1 -376.2188 0)">
					<stop  offset="0" style="stop-color:#FFFFFF"/>
					<stop  offset="0.84" style="stop-color:#CDDFEC"/>
				</linearGradient>
				<path style="fill:url(#SVGID_52_);" d="M23.691,35.938H22.69c-0.05,0-0.091-0.041-0.091-0.091v-1.001
					c0-0.05,0.041-0.091,0.091-0.091h1.001c0.05,0,0.091,0.041,0.091,0.091v1.001C23.782,35.897,23.741,35.938,23.691,35.938z"/>
				
					<linearGradient id="SVGID_53_" gradientUnits="userSpaceOnUse" x1="401.461" y1="48.7769" x2="401.461" y2="-0.2802" gradientTransform="matrix(1 0 0 1 -376.2188 0)">
					<stop  offset="0" style="stop-color:#FFFFFF"/>
					<stop  offset="0.84" style="stop-color:#CDDFEC"/>
				</linearGradient>
				<path style="fill:url(#SVGID_53_);" d="M25.743,35.938h-1.002c-0.05,0-0.091-0.041-0.091-0.091v-1.001
					c0-0.05,0.041-0.091,0.091-0.091h1.002c0.05,0,0.091,0.041,0.091,0.091v1.001C25.834,35.897,25.793,35.938,25.743,35.938z"/>
				
					<linearGradient id="SVGID_54_" gradientUnits="userSpaceOnUse" x1="403.5127" y1="48.7769" x2="403.5127" y2="-0.2802" gradientTransform="matrix(1 0 0 1 -376.2188 0)">
					<stop  offset="0" style="stop-color:#FFFFFF"/>
					<stop  offset="0.84" style="stop-color:#CDDFEC"/>
				</linearGradient>
				<path style="fill:url(#SVGID_54_);" d="M27.795,35.938h-1.001c-0.05,0-0.091-0.041-0.091-0.091v-1.001
					c0-0.05,0.041-0.091,0.091-0.091h1.001c0.05,0,0.091,0.041,0.091,0.091v1.001C27.886,35.897,27.845,35.938,27.795,35.938z"/>
				
					<linearGradient id="SVGID_55_" gradientUnits="userSpaceOnUse" x1="405.5643" y1="48.7769" x2="405.5643" y2="-0.2802" gradientTransform="matrix(1 0 0 1 -376.2188 0)">
					<stop  offset="0" style="stop-color:#FFFFFF"/>
					<stop  offset="0.84" style="stop-color:#CDDFEC"/>
				</linearGradient>
				<path style="fill:url(#SVGID_55_);" d="M29.846,35.938h-1.002c-0.05,0-0.091-0.041-0.091-0.091v-1.001
					c0-0.05,0.041-0.091,0.091-0.091h1.002c0.05,0,0.091,0.041,0.091,0.091v1.001C29.937,35.897,29.896,35.938,29.846,35.938z"/>
				
					<linearGradient id="SVGID_56_" gradientUnits="userSpaceOnUse" x1="407.616" y1="48.7769" x2="407.616" y2="-0.2802" gradientTransform="matrix(1 0 0 1 -376.2188 0)">
					<stop  offset="0" style="stop-color:#FFFFFF"/>
					<stop  offset="0.84" style="stop-color:#CDDFEC"/>
				</linearGradient>
				<path style="fill:url(#SVGID_56_);" d="M31.898,35.938h-1.002c-0.05,0-0.091-0.041-0.091-0.091v-1.001
					c0-0.05,0.041-0.091,0.091-0.091h1.002c0.05,0,0.091,0.041,0.091,0.091v1.001C31.989,35.897,31.948,35.938,31.898,35.938z"/>
			</g>
			<g>
				
					<linearGradient id="SVGID_57_" gradientUnits="userSpaceOnUse" x1="399.4093" y1="48.7758" x2="399.4093" y2="-0.2772" gradientTransform="matrix(1 0 0 1 -376.2188 0)">
					<stop  offset="0" style="stop-color:#FFFFFF"/>
					<stop  offset="0.84" style="stop-color:#CDDFEC"/>
				</linearGradient>
				<path style="fill:url(#SVGID_57_);" d="M23.691,38.099H22.69c-0.05,0-0.091-0.041-0.091-0.091v-1.001
					c0-0.05,0.041-0.091,0.091-0.091h1.001c0.05,0,0.091,0.041,0.091,0.091v1.001C23.782,38.058,23.741,38.099,23.691,38.099z"/>
				
					<linearGradient id="SVGID_58_" gradientUnits="userSpaceOnUse" x1="401.461" y1="48.7758" x2="401.461" y2="-0.2772" gradientTransform="matrix(1 0 0 1 -376.2188 0)">
					<stop  offset="0" style="stop-color:#FFFFFF"/>
					<stop  offset="0.84" style="stop-color:#CDDFEC"/>
				</linearGradient>
				<path style="fill:url(#SVGID_58_);" d="M25.743,38.099h-1.002c-0.05,0-0.091-0.041-0.091-0.091v-1.001
					c0-0.05,0.041-0.091,0.091-0.091h1.002c0.05,0,0.091,0.041,0.091,0.091v1.001C25.834,38.058,25.793,38.099,25.743,38.099z"/>
				
					<linearGradient id="SVGID_59_" gradientUnits="userSpaceOnUse" x1="403.5127" y1="48.7758" x2="403.5127" y2="-0.2772" gradientTransform="matrix(1 0 0 1 -376.2188 0)">
					<stop  offset="0" style="stop-color:#FFFFFF"/>
					<stop  offset="0.84" style="stop-color:#CDDFEC"/>
				</linearGradient>
				<path style="fill:url(#SVGID_59_);" d="M27.795,38.099h-1.001c-0.05,0-0.091-0.041-0.091-0.091v-1.001
					c0-0.05,0.041-0.091,0.091-0.091h1.001c0.05,0,0.091,0.041,0.091,0.091v1.001C27.886,38.058,27.845,38.099,27.795,38.099z"/>
				
					<linearGradient id="SVGID_60_" gradientUnits="userSpaceOnUse" x1="405.5643" y1="48.7758" x2="405.5643" y2="-0.2772" gradientTransform="matrix(1 0 0 1 -376.2188 0)">
					<stop  offset="0" style="stop-color:#FFFFFF"/>
					<stop  offset="0.84" style="stop-color:#CDDFEC"/>
				</linearGradient>
				<path style="fill:url(#SVGID_60_);" d="M29.846,38.099h-1.002c-0.05,0-0.091-0.041-0.091-0.091v-1.001
					c0-0.05,0.041-0.091,0.091-0.091h1.002c0.05,0,0.091,0.041,0.091,0.091v1.001C29.937,38.058,29.896,38.099,29.846,38.099z"/>
				
					<linearGradient id="SVGID_61_" gradientUnits="userSpaceOnUse" x1="407.616" y1="48.7758" x2="407.616" y2="-0.2772" gradientTransform="matrix(1 0 0 1 -376.2188 0)">
					<stop  offset="0" style="stop-color:#FFFFFF"/>
					<stop  offset="0.84" style="stop-color:#CDDFEC"/>
				</linearGradient>
				<path style="fill:url(#SVGID_61_);" d="M31.898,38.099h-1.002c-0.05,0-0.091-0.041-0.091-0.091v-1.001
					c0-0.05,0.041-0.091,0.091-0.091h1.002c0.05,0,0.091,0.041,0.091,0.091v1.001C31.989,38.058,31.948,38.099,31.898,38.099z"/>
			</g>
			<g>
				
					<linearGradient id="SVGID_62_" gradientUnits="userSpaceOnUse" x1="399.4093" y1="48.7767" x2="399.4093" y2="-0.2804" gradientTransform="matrix(1 0 0 1 -376.2188 0)">
					<stop  offset="0" style="stop-color:#FFFFFF"/>
					<stop  offset="0.84" style="stop-color:#CDDFEC"/>
				</linearGradient>
				<path style="fill:url(#SVGID_62_);" d="M23.691,40.26H22.69c-0.05,0-0.091-0.041-0.091-0.091v-1.001
					c0-0.05,0.041-0.091,0.091-0.091h1.001c0.05,0,0.091,0.041,0.091,0.091v1.001C23.782,40.219,23.741,40.26,23.691,40.26z"/>
				
					<linearGradient id="SVGID_63_" gradientUnits="userSpaceOnUse" x1="401.461" y1="48.7767" x2="401.461" y2="-0.2804" gradientTransform="matrix(1 0 0 1 -376.2188 0)">
					<stop  offset="0" style="stop-color:#FFFFFF"/>
					<stop  offset="0.84" style="stop-color:#CDDFEC"/>
				</linearGradient>
				<path style="fill:url(#SVGID_63_);" d="M25.743,40.26h-1.002c-0.05,0-0.091-0.041-0.091-0.091v-1.001
					c0-0.05,0.041-0.091,0.091-0.091h1.002c0.05,0,0.091,0.041,0.091,0.091v1.001C25.834,40.219,25.793,40.26,25.743,40.26z"/>
				
					<linearGradient id="SVGID_64_" gradientUnits="userSpaceOnUse" x1="403.5127" y1="48.7767" x2="403.5127" y2="-0.2804" gradientTransform="matrix(1 0 0 1 -376.2188 0)">
					<stop  offset="0" style="stop-color:#FFFFFF"/>
					<stop  offset="0.84" style="stop-color:#CDDFEC"/>
				</linearGradient>
				<path style="fill:url(#SVGID_64_);" d="M27.795,40.26h-1.001c-0.05,0-0.091-0.041-0.091-0.091v-1.001
					c0-0.05,0.041-0.091,0.091-0.091h1.001c0.05,0,0.091,0.041,0.091,0.091v1.001C27.886,40.219,27.845,40.26,27.795,40.26z"/>
				
					<linearGradient id="SVGID_65_" gradientUnits="userSpaceOnUse" x1="405.5643" y1="48.7767" x2="405.5643" y2="-0.2804" gradientTransform="matrix(1 0 0 1 -376.2188 0)">
					<stop  offset="0" style="stop-color:#FFFFFF"/>
					<stop  offset="0.84" style="stop-color:#CDDFEC"/>
				</linearGradient>
				<path style="fill:url(#SVGID_65_);" d="M29.846,40.26h-1.002c-0.05,0-0.091-0.041-0.091-0.091v-1.001
					c0-0.05,0.041-0.091,0.091-0.091h1.002c0.05,0,0.091,0.041,0.091,0.091v1.001C29.937,40.219,29.896,40.26,29.846,40.26z"/>
				
					<linearGradient id="SVGID_66_" gradientUnits="userSpaceOnUse" x1="407.616" y1="48.7767" x2="407.616" y2="-0.2804" gradientTransform="matrix(1 0 0 1 -376.2188 0)">
					<stop  offset="0" style="stop-color:#FFFFFF"/>
					<stop  offset="0.84" style="stop-color:#CDDFEC"/>
				</linearGradient>
				<path style="fill:url(#SVGID_66_);" d="M31.898,40.26h-1.002c-0.05,0-0.091-0.041-0.091-0.091v-1.001
					c0-0.05,0.041-0.091,0.091-0.091h1.002c0.05,0,0.091,0.041,0.091,0.091v1.001C31.989,40.219,31.948,40.26,31.898,40.26z"/>
			</g>
		</g>
		
			<linearGradient id="SVGID_67_" gradientUnits="userSpaceOnUse" x1="420.5681" y1="44.8723" x2="420.5681" y2="14.9079" gradientTransform="matrix(1 0 0 1 -376.2188 0)">
			<stop  offset="0.0176" style="stop-color:#97EFE7"/>
			<stop  offset="0.5207" style="stop-color:#3DB6D3"/>
			<stop  offset="1" style="stop-color:#3D6FD3"/>
		</linearGradient>
		<path style="fill:url(#SVGID_67_);" d="M45.652,31.812c-0.591,0-1.07,0.479-1.07,1.07v5.194h-7.375l-0.005,0.269
			c-0.049,2.622,2.063,4.775,4.686,4.775h3.181v-1.962h6.428v-9.344H45.652z"/>
		
			<linearGradient id="SVGID_68_" gradientUnits="userSpaceOnUse" x1="387.5124" y1="25.687" x2="387.5124" y2="25.1268" gradientTransform="matrix(1 0 0 1 -376.2188 0)">
			<stop  offset="0" style="stop-color:#FFFFFF"/>
			<stop  offset="0.84" style="stop-color:#CDDFEC"/>
		</linearGradient>
		<path style="opacity:0.49;fill:url(#SVGID_68_);" d="M11.047,25.389c-0.067,0.019,0.052,0.116,0.192,0.211
			c0.001-0.001,0.002-0.003,0.004-0.004l0.111-0.026c0.082-0.019,0.152-0.063,0.205-0.121C11.556,25.447,11.186,25.35,11.047,25.389
			z"/>
	</g>
	<g>
		<g>
			
				<linearGradient id="SVGID_69_" gradientUnits="userSpaceOnUse" x1="395.0599" y1="58.9965" x2="395.0599" y2="38.2785" gradientTransform="matrix(1 0 0 1 -376.2188 0)">
				<stop  offset="0" style="stop-color:#7FF1A4"/>
				<stop  offset="0.5173" style="stop-color:#2FBCA4"/>
				<stop  offset="1" style="stop-color:#2F7DA4"/>
			</linearGradient>
			<path style="fill:url(#SVGID_69_);" d="M14.896,48.347c0-1.006,0.675-1.854,1.597-2.116c0.302-0.086,0.535-0.329,0.624-0.63
				c0.284-0.958,1.202-1.642,2.267-1.568c1.064,0.074,1.934,0.925,2.032,1.987c0.016,0.17,0.012,0.336-0.009,0.497
				c-0.044,0.332,0.109,0.661,0.389,0.846c0.597,0.394,0.99,1.069,0.99,1.838c0,0.617-0.254,1.174-0.663,1.573
				c-0.136,0.133-0.256,0.284-0.329,0.46c-0.237,0.563-0.792,0.958-1.441,0.958c-0.069,0-0.136-0.004-0.202-0.013
				c-0.356-0.046-0.717,0.013-1.023,0.199c-0.332,0.201-0.72,0.316-1.136,0.316c-1.215,0-2.2-0.985-2.2-2.2c0-0.007,0-0.013,0-0.02
				c0.002-0.211-0.083-0.41-0.233-0.557C15.149,49.519,14.896,48.962,14.896,48.347z"/>
			<linearGradient id="SVGID_70_" gradientUnits="userSpaceOnUse" x1="18.5917" y1="54.1152" x2="18.5917" y2="43.5615">
				<stop  offset="0" style="stop-color:#FFFFFF"/>
				<stop  offset="0.84" style="stop-color:#CDDFEC"/>
			</linearGradient>
			<path style="fill:url(#SVGID_70_);" d="M19.833,50.282c-0.042,0.014-0.089,0.023-0.133,0.035
				c-0.045,0.009-0.093,0.029-0.131,0.06c-0.038,0.031-0.068,0.071-0.086,0.117c-0.017,0.048-0.023,0.09-0.042,0.132
				c-0.033,0.084-0.082,0.161-0.145,0.226c-0.063,0.066-0.138,0.113-0.221,0.153l-0.196,0.101l-0.038-2.596l-0.029,1.987
				l-0.354-0.172c-0.066-0.033-0.134-0.061-0.192-0.101c-0.059-0.04-0.113-0.089-0.157-0.145c-0.01-0.012-0.018-0.026-0.027-0.04
				c0.002-0.002,0.003-0.003,0.005-0.006c0.007-0.014,0.002-0.031-0.012-0.039l-0.001,0l-0.03-0.015
				c-0.016-0.029-0.03-0.058-0.041-0.088c-0.024-0.068-0.043-0.14-0.065-0.209l-0.126-0.422l0.112,0.425
				c0.02,0.071,0.036,0.142,0.058,0.213c0.008,0.022,0.018,0.043,0.028,0.065l-0.332-0.162c-0.066-0.033-0.134-0.061-0.192-0.101
				c-0.059-0.04-0.113-0.089-0.157-0.145c-0.045-0.056-0.081-0.12-0.106-0.187c-0.024-0.068-0.043-0.14-0.065-0.209l-0.126-0.422
				l0.112,0.425c0.02,0.071,0.035,0.142,0.058,0.213c0.024,0.07,0.059,0.137,0.104,0.197c0.045,0.06,0.099,0.113,0.16,0.157
				c0.061,0.045,0.129,0.075,0.193,0.11l0.389,0.205c0.002,0.001,0.005,0.002,0.007,0.002c0.01,0.016,0.019,0.033,0.03,0.048
				c0.045,0.06,0.099,0.113,0.16,0.157c0.061,0.045,0.129,0.075,0.193,0.11l0.372,0.196l-0.042,2.868
				c0.049,0.055,0.096,0.112,0.145,0.166L18.88,51.17l0.219-0.12c0.082-0.042,0.165-0.097,0.229-0.168
				c0.065-0.07,0.115-0.153,0.147-0.243c0.017-0.043,0.025-0.094,0.038-0.134c0.015-0.041,0.041-0.078,0.074-0.106
				c0.034-0.029,0.074-0.047,0.119-0.057c0.045-0.013,0.089-0.022,0.135-0.039c0.09-0.035,0.161-0.111,0.19-0.201
				c0.044-0.182,0.08-0.362,0.12-0.544c-0.045,0.18-0.086,0.361-0.134,0.539C19.987,50.182,19.918,50.252,19.833,50.282z"/>
		</g>
		<g>
			<linearGradient id="SVGID_71_" gradientUnits="userSpaceOnUse" x1="15.2849" y1="58.6389" x2="15.2849" y2="43.867">
				<stop  offset="0" style="stop-color:#7FF1A4"/>
				<stop  offset="0.5173" style="stop-color:#2FBCA4"/>
				<stop  offset="1" style="stop-color:#2F7DA4"/>
			</linearGradient>
			<path style="fill:url(#SVGID_71_);" d="M16.671,51.311c-0.194-0.055-0.344-0.211-0.401-0.405
				c-0.183-0.616-0.773-1.056-1.458-1.008c-0.684,0.048-1.244,0.595-1.307,1.278c-0.01,0.109-0.008,0.216,0.006,0.319
				c0.028,0.213-0.07,0.425-0.25,0.544c-0.157,0.104-0.284,0.243-0.389,0.399c1.105,1.034,2.29,1.984,3.551,2.83
				c0.417-0.246,0.7-0.695,0.7-1.215c0-0.004,0-0.008,0-0.013c-0.001-0.135,0.053-0.264,0.15-0.358
				c0.262-0.257,0.425-0.615,0.425-1.011C17.698,52.025,17.264,51.479,16.671,51.311z"/>
			<g>
				<linearGradient id="SVGID_72_" gradientUnits="userSpaceOnUse" x1="15.7536" y1="54.5293" x2="15.7536" y2="52.1321">
					<stop  offset="0" style="stop-color:#FFFFFF"/>
					<stop  offset="0.84" style="stop-color:#CDDFEC"/>
				</linearGradient>
				<path style="fill:url(#SVGID_72_);" d="M16.202,53.662c-0.016,0.043-0.039,0.084-0.068,0.12
					c-0.029,0.036-0.063,0.068-0.101,0.093c-0.038,0.026-0.081,0.043-0.124,0.065l-0.213,0.104c0.006-0.014,0.013-0.027,0.018-0.042
					c0.015-0.046,0.025-0.091,0.037-0.137l0.072-0.273l-0.081,0.271c-0.014,0.045-0.026,0.091-0.042,0.135
					c-0.007,0.02-0.016,0.038-0.027,0.057l-0.019,0.009l-0.001,0c-0.009,0.005-0.012,0.016-0.008,0.025
					c0.001,0.001,0.002,0.002,0.003,0.004c-0.006,0.008-0.011,0.018-0.017,0.025c-0.029,0.036-0.063,0.068-0.101,0.093
					c-0.038,0.026-0.081,0.044-0.124,0.065l-0.224,0.109c0.01,0.008,0.02,0.016,0.031,0.024l0.206-0.109
					c0.041-0.023,0.085-0.042,0.124-0.071c0.039-0.028,0.074-0.062,0.103-0.101c0.007-0.01,0.013-0.021,0.019-0.031
					c0.002,0,0.003-0.001,0.005-0.001l0.25-0.132c0.041-0.023,0.085-0.042,0.124-0.071c0.039-0.028,0.074-0.062,0.103-0.101
					c0.029-0.039,0.051-0.082,0.067-0.127c0.015-0.046,0.025-0.091,0.037-0.137l0.072-0.273l-0.081,0.271
					C16.229,53.572,16.217,53.618,16.202,53.662z"/>
				<linearGradient id="SVGID_73_" gradientUnits="userSpaceOnUse" x1="15.1614" y1="54.5152" x2="15.1614" y2="51.87">
					<stop  offset="0" style="stop-color:#FFFFFF"/>
					<stop  offset="0.84" style="stop-color:#CDDFEC"/>
				</linearGradient>
				<path style="fill:url(#SVGID_73_);" d="M15.18,54.384l-0.018-1.274l-0.018,1.245C15.155,54.365,15.167,54.375,15.18,54.384z"/>
			</g>
		</g>
	</g>
	<g>
		<linearGradient id="SVGID_74_" gradientUnits="userSpaceOnUse" x1="40.7036" y1="64.7314" x2="41.3286" y2="60.4189">
			<stop  offset="0" style="stop-color:#7FF1A4"/>
			<stop  offset="0.5173" style="stop-color:#2FBCA4"/>
			<stop  offset="1" style="stop-color:#2F7DA4"/>
		</linearGradient>
		<path style="fill:url(#SVGID_74_);" d="M39.742,58.805c0,0,0.048,0.025,0.134,0.064c1.266-0.37,2.493-0.828,3.678-1.365
			c0.615-2.643-0.951-6.073-0.951-6.073L39.742,58.805z"/>
		<g>
			<path style="fill:#F9AA8F;" d="M29.394,24.555l-1.264-3.803c-0.606,0.176-1.063,0.783-1.381,1.336
				c-0.199,0.345-0.353,0.714-0.467,1.096l-0.221,0.738c-0.064,0.213-0.139,0.423-0.229,0.627
				c-2.311,5.209-8.068,12.827-16.145,12.827v1.746c0,0,15.703,1.371,20.731-9.66L29.394,24.555z"/>
			<linearGradient id="SVGID_75_" gradientUnits="userSpaceOnUse" x1="23.7258" y1="37.2387" x2="22.3004" y2="24.1454">
				<stop  offset="0" style="stop-color:#F9AA8F"/>
				<stop  offset="1" style="stop-color:#F78E6B"/>
			</linearGradient>
			<path style="fill:url(#SVGID_75_);" d="M30.131,29.203l-0.023-0.142c-1.526-2.24-2.998-3.883-3.371-2.579
				c-0.843,2.95-3.06,4.46-4.01,7.598c-0.949,3.134-6.122,4.527-6.132,4.53C21.37,37.699,27.345,35.315,30.131,29.203z"/>
			<path id="XMLID_2_" style="fill:#F9AA8F;" d="M28.13,20.753l10.634-0.216l0.729,10.135l-9.187,3.409
				C30.306,34.08,24.023,24.765,28.13,20.753z"/>
			<path id="XMLID_31_" style="fill:#F9AA8F;" d="M43.506,42.341c0,0-1.82-5.315-4.972-13.931
				c-3.153-8.616-4.852-3.367-10.873,17.791C27.661,46.201,32.787,58.058,43.506,42.341z"/>
			<path style="fill:#F79C84;" d="M37.381,59.478l-2.519-12.399l-1.394-1.397l-4.201-0.868c0,0-4.656,6.964-3.027,14.591
				C28.099,59.793,30.025,60,32,60C33.841,60,35.639,59.817,37.381,59.478z"/>
			<linearGradient id="SVGID_76_" gradientUnits="userSpaceOnUse" x1="20.7394" y1="72.1647" x2="22.5727" y2="69.248">
				<stop  offset="0" style="stop-color:#F9AA8F"/>
				<stop  offset="1" style="stop-color:#F78E6B"/>
			</linearGradient>
			<path style="fill:url(#SVGID_76_);" d="M32,60c1.841,0,3.639-0.183,5.381-0.522l-2.519-12.399l-1.394-1.397l-4.201-0.868
				c0,0-1.231,1.841-2.206,4.666c0.565-0.585,1.537-1.087,3.07-0.428c2.03,0.872-0.281,6.386-2.318,10.636
				C29.179,59.892,30.577,60,32,60z"/>
			<path style="fill:#F9AA8F;" d="M38.195,42.834c0,0-4.159,9.06-8.007,17.101C30.787,59.974,31.39,60,32,60
				c3.265,0,6.398-0.565,9.312-1.592c5.36-9.69,1.861-17.031,1.861-17.031L38.195,42.834z"/>
			<linearGradient id="SVGID_77_" gradientUnits="userSpaceOnUse" x1="34.612" y1="66.6955" x2="35.8619" y2="40.1955">
				<stop  offset="0" style="stop-color:#7FF1A4"/>
				<stop  offset="0.5173" style="stop-color:#2FBCA4"/>
				<stop  offset="1" style="stop-color:#2F7DA4"/>
			</linearGradient>
			<path style="fill:url(#SVGID_77_);" d="M32.249,43.355c-1.333,0-2.549-0.048-3.736-0.144c-3.87,9.223-2.608,11.134-2.608,11.134
				c2.122-4.084,6.516,0.885,6.516,0.885c2.46-6.325,9.912,1.247,10.957,2.353c0.064-0.029,0.128-0.058,0.193-0.087
				c3.206-9.952-0.1-15.634-0.379-16.086C42.008,42.526,37.56,43.355,32.249,43.355z"/>
			<linearGradient id="SVGID_78_" gradientUnits="userSpaceOnUse" x1="47.7733" y1="37.2779" x2="26.6352" y2="45.0899">
				<stop  offset="0" style="stop-color:#F9AA8F"/>
				<stop  offset="1" style="stop-color:#F78E6B"/>
			</linearGradient>
			<path style="fill:url(#SVGID_78_);" d="M41.883,37.705l-12.616,2.888l0,0c0.002,0,12.095-1.44,12.695-0.412
				c0.641,1.097-1.52,2.273-2.896,2.655c-0.055,0.015,3.145-0.793,4.403-0.444c0.012-0.018,0.024-0.034,0.036-0.052
				C43.506,42.341,42.936,40.678,41.883,37.705z"/>
			<linearGradient id="SVGID_79_" gradientUnits="userSpaceOnUse" x1="35.8188" y1="39.4109" x2="36.4855" y2="55.161">
				<stop  offset="0" style="stop-color:#7FF1A4"/>
				<stop  offset="0.5173" style="stop-color:#2FBCA4"/>
				<stop  offset="1" style="stop-color:#2F7DA4"/>
			</linearGradient>
			<path style="fill:url(#SVGID_79_);" d="M33.553,44.814c4.383,0,8.233-0.65,10.445-1.631c-0.369-1.037-0.722-1.639-0.805-1.773
				c-1.185,1.116-5.634,1.945-10.944,1.945c-1.333,0-2.549-0.048-3.736-0.144c-0.179,0.427-0.344,0.833-0.501,1.229
				C29.681,44.679,31.561,44.814,33.553,44.814z"/>
			<path style="fill:#F9AA8F;" d="M55.997,43.052v0.247h-2.279c0,0,0.11-2.911-2.586-7.196c-2.273-3.617-5.821-6.988-11.161-7.215
				c-0.186-0.008-0.376,0-0.568,0c0,0-1.058-0.735-0.135-8.659c0,0,0.09,0.03,0.259,0.085c0.029,0.01,0.061,0.022,0.094,0.032
				c0.198,0.067,0.47,0.166,0.807,0.297c0.055,0.022,0.11,0.045,0.169,0.07c0.006,0,0.012,0.004,0.018,0.006
				c0.104,0.043,0.217,0.09,0.333,0.139c0.096,0.041,0.209,0.084,0.314,0.129C45.746,22.957,55.385,27.594,55.997,43.052z"/>
			<linearGradient id="SVGID_80_" gradientUnits="userSpaceOnUse" x1="56.4429" y1="21.225" x2="28.8018" y2="38.3593">
				<stop  offset="0" style="stop-color:#F9AA8F"/>
				<stop  offset="1" style="stop-color:#F78E6B"/>
			</linearGradient>
			<path style="fill:url(#SVGID_80_);" d="M51.133,36.153c-2.273-3.617-5.821-7.013-11.161-7.24
				c-0.633-1.703-1.191-4.497-0.703-8.678c0,0,0.09,0.027,0.259,0.082c0.029,0.01,0.061,0.02,0.094,0.031
				c0.198,0.067,0.47,0.165,0.807,0.296c0.055,0.022,0.11,0.045,0.169,0.069c0.006,0,0.012,0.004,0.018,0.006
				c0.104,0.043,0.217,0.09,0.333,0.139c0.096,0.041,0.196,0.084,0.3,0.129c-0.447-0.147-1.223-0.184-1.268,1.315
				c-0.039,1.328,3.047,2.998,6.027,5.279C48.747,29.677,50.563,32.755,51.133,36.153z"/>
			<path style="fill:#F9AA8F;" d="M37.229,19.084c-0.948-1.083-1.521-2.442-1.636-3.876l-0.01-0.12l0,0
				c-0.554-9.92-6.362-6.972-6.362-6.972s-0.217,0.515-0.499,1.243c-0.26,0.671-0.572,1.323-0.933,1.946l-1.154,1.993
				c-0.113,0.196-0.001,0.445,0.22,0.49l0.118,0.024c0.247,0.05,0.431,0.261,0.441,0.513c0.038,0.932,0.308,1.987,1.108,1.987
				c1.454,0,1.793,0,1.86,0l0,0c0.719,0.057,1.241,0.721,1.111,1.43c-0.215,1.173-1.309,1.986-2.261,2.484
				c-0.62,0.324-0.672,1.191-0.101,1.595l4.55,3.221l5.083-4.205L37.229,19.084z"/>
			<g style="opacity:0.49;">
				<linearGradient id="SVGID_81_" gradientUnits="userSpaceOnUse" x1="28.4183" y1="22.1165" x2="38.1327" y2="4.9051">
					<stop  offset="0" style="stop-color:#F9AA8F"/>
					<stop  offset="1" style="stop-color:#F78E6B"/>
				</linearGradient>
				<path style="fill:url(#SVGID_81_);" d="M37.229,19.084c-0.948-1.083-1.521-2.442-1.636-3.876l-0.01-0.12l0,0
					c-0.554-9.92-6.362-6.972-6.362-6.972s-0.217,0.515-0.499,1.243c-0.059,0.152-0.122,0.303-0.187,0.453
					c-0.087,0.201,0,0.451,0.208,0.518c0.001,0,0.003,0.001,0.004,0.001c0.343,0.106-0.653,1.252-1.04,2.202
					c-0.269,0.661-1.037,1.015-1.115,0.941c0.005,0.146,0.105,0.282,0.263,0.314l0.118,0.024c0.246,0.05,0.431,0.259,0.441,0.51
					c0.005,0.137,0.017,0.276,0.033,0.415c0.001-0.008,0.455-3.383,2.684-3.541c2.142-0.152,1.959,4.744-0.465,5.094
					c0.858-0.042,3.22-0.029,3.779,1.347C34.131,19.327,36.341,20.108,37.229,19.084z"/>
			</g>
			<g>
				<linearGradient id="SVGID_82_" gradientUnits="userSpaceOnUse" x1="19.2022" y1="0.8959" x2="41.2023" y2="49.6461">
					<stop  offset="0" style="stop-color:#FFCE28"/>
					<stop  offset="0.5018" style="stop-color:#FF9328"/>
					<stop  offset="1" style="stop-color:#B03400"/>
				</linearGradient>
				<path style="fill:url(#SVGID_82_);" d="M42.559,38.189l-0.436-0.909c-0.956-1.996-1.211-3.992-0.955-6.186
					c-0.483-0.977-2.379-5.248-1.899-10.86l-2.041-1.15c0,0,0.281,7.793-4.937,8.527c0,0-4.631,0.955-2.497-7.711l-1.665,0.852
					l-0.469,2.32l-0.169,0.963c-0.16,0.915-0.701,2.147-0.902,2.948c-1.235,4.933,5.939,6.617-0.428,11.951
					c-4.224,3.539,12.714,0.514,16.077-0.113C42.528,38.767,42.686,38.454,42.559,38.189z"/>
			</g>
			<path id="XMLID_24_" style="fill:#DE806E;" d="M35.771,41.279c0-0.194-0.158-0.351-0.351-0.351c-0.192,0-0.351,0.156-0.351,0.351
				c0,0.193,0.158,0.349,0.351,0.349C35.613,41.628,35.771,41.471,35.771,41.279z"/>
			<g>
				<linearGradient id="SVGID_83_" gradientUnits="userSpaceOnUse" x1="26.8738" y1="29.037" x2="26.0842" y2="28.3655">
					<stop  offset="0" style="stop-color:#FFFFFF;stop-opacity:0"/>
					<stop  offset="1" style="stop-color:#000000"/>
				</linearGradient>
				<polygon style="fill:url(#SVGID_83_);stroke:#000000;stroke-miterlimit:10;" points="26.479,28.701 26.479,28.701 
					26.479,28.701 				"/>
				<linearGradient id="SVGID_84_" gradientUnits="userSpaceOnUse" x1="23.879" y1="-0.5236" x2="39.1289" y2="45.1014">
					<stop  offset="0" style="stop-color:#FFCE28"/>
					<stop  offset="0.5018" style="stop-color:#FF9328"/>
					<stop  offset="1" style="stop-color:#B03400"/>
				</linearGradient>
				<path style="fill:url(#SVGID_84_);" d="M37.229,39.677c2.204-0.343,4.102-0.687,5.01-0.856c0.289-0.054,0.447-0.367,0.32-0.632
					l-0.436-0.909c-1-2.087-1.282-3.895-0.955-6.186l0,0c0,0-2.453-4.388-1.899-10.86l-0.387-0.218
					c-0.408,1.64-0.406,5.253-0.243,8.685c0.184,3.854-3.875,3.878-7.835,3.933c-2.298,0.032-3.384-1.297-3.892-2.418
					c0.947,2.186,2.872,3.857,1.361,6.399c-0.789,2.558,2.004,1.296,7.148,1.507C40.564,38.333,37.23,39.676,37.229,39.677z"/>
			</g>
			<path style="fill:#F9AA8F;" d="M10.689,37.376c0,0-0.915-0.363-2.217-1.489c-1.302-1.126-3.625,2.288-3.168,3.027
				c0.458,0.739,2.745,1.76,2.816,1.056c0.07-0.704,0.035-0.816,0.035-0.816s0.634,0.183,4.329-0.046"/>
			<path style="fill:#F9AA8F;" d="M53.636,42.933c0,0-0.13,3.781,0.539,4.273c0.669,0.493,2.569,0.915,3.379,0.211
				c0.809-0.704,1.513-2.956,1.056-2.886c-0.458,0.07-1.76,0.915-1.795,0.81s0.732-2.289-0.817-2.289"/>
		</g>
		<linearGradient id="SVGID_85_" gradientUnits="userSpaceOnUse" x1="13.3576" y1="41.7181" x2="32.441" y2="50.3848">
			<stop  offset="0" style="stop-color:#7FF1A4"/>
			<stop  offset="0.5173" style="stop-color:#2FBCA4"/>
			<stop  offset="1" style="stop-color:#2F7DA4"/>
		</linearGradient>
		<path style="fill:url(#SVGID_85_);" d="M34.046,46.261c-0.816,0.546-1.883,0.518-2.678-0.057
			c-2.631-1.905-2.463,0.441-0.101,3.159c1.237,1.424-3.418,3.393-3.418,3.393l0,0c2.107-0.293,4.533,2.427,4.572,2.472l0.016-0.034
			c0.102-0.257,0.212-0.49,0.33-0.701l0.22-0.468C33.703,52.502,35.008,47.641,34.046,46.261L34.046,46.261z"/>
		<linearGradient id="SVGID_86_" gradientUnits="userSpaceOnUse" x1="35.7529" y1="0.3877" x2="29.5863" y2="19.8876">
			<stop  offset="0" style="stop-color:#FF7D63"/>
			<stop  offset="0.5168" style="stop-color:#FF5763"/>
			<stop  offset="1" style="stop-color:#8B3044"/>
		</linearGradient>
		<path style="fill:url(#SVGID_86_);" d="M27.89,5.331C27.652,5.568,27.53,5.9,27.551,6.236c0.063,0.985,0.452,3.027,2.58,3.449
			c2.238,0.445,2.528,1.177,2.552,1.463c0.007,0.087,0.035,0.172,0.089,0.241l0.012,0.016c0.159,0.204,0.46,0.216,0.638,0.029
			c0.307-0.322,0.809-0.658,1.336-0.217c0.554,0.463,0.091,1.338-0.304,1.896c-0.233,0.33-0.24,0.768-0.018,1.106l1.331,2.027
			c0,0,1.183-3.242,3.251-6.012c0.279-0.374,0.259-0.891-0.048-1.242C37.27,7.049,31.79,1.469,27.89,5.331z"/>
		<g>
			<linearGradient id="SVGID_87_" gradientUnits="userSpaceOnUse" x1="23.5444" y1="21.9697" x2="36.378" y2="-0.7806">
				<stop  offset="0" style="stop-color:#FF7D63"/>
				<stop  offset="0.5168" style="stop-color:#FF5763"/>
				<stop  offset="1" style="stop-color:#8B3044"/>
			</linearGradient>
			<path style="fill:url(#SVGID_87_);" d="M30.131,9.685c2.238,0.445,2.528,1.177,2.552,1.463c0.007,0.087,0.035,0.172,0.089,0.241
				l0.012,0.016c0.159,0.204,0.46,0.216,0.638,0.029c0.134-0.141,0.306-0.285,0.501-0.365c-0.378-0.182,0.719-3.392-0.847-4.277
				c-1.566-0.885,0.034,2.417-2.791,2.281c-1.739-0.084-2.372-1.138-2.603-1.937C27.919,8.144,28.537,9.369,30.131,9.685z"/>
			<linearGradient id="SVGID_88_" gradientUnits="userSpaceOnUse" x1="28.9671" y1="25.0283" x2="41.8003" y2="2.2786">
				<stop  offset="0" style="stop-color:#FF7D63"/>
				<stop  offset="0.5168" style="stop-color:#FF5763"/>
				<stop  offset="1" style="stop-color:#8B3044"/>
			</linearGradient>
			<path style="fill:url(#SVGID_88_);" d="M38.764,10.584c-0.254,0.35-2.998,3.084-3.134,2.199
				c-0.105-0.685-0.569-1.247-0.774-1.466c0.393,0.481-0.034,1.276-0.402,1.796c-0.233,0.33-0.24,0.768-0.018,1.106l1.331,2.027
				C35.767,16.246,36.854,13.269,38.764,10.584L38.764,10.584z"/>
		</g>
	</g>
</g>
</svg>
